<svg xmlns="http://www.w3.org/2000/svg" viewBox="0 0 324 222" preserveAspectRatio="xMidYMid meet" class="css-1d6k1hz" id="gcacghba"><defs id="SvgjsDefs1012"/><g id="SvgjsG1013" featurekey="root" fill="#ffffff"/><g id="SvgjsG1014" featurekey="container1" fill="#3ca4f9" transform="matrix(1.5903230006301394,0,0,1.5903230006301394,0,0)"><defs xmlns="http://www.w3.org/2000/svg"/><g xmlns="http://www.w3.org/2000/svg"><path style="fill:;" d="M177.937,21.107c-7.555-2.331-63.43-11.68-76.135-12.183c-12.706,0.503-68.578,9.852-76.136,12.183    c-0.273,15.579-15.28,48.684-15.28,48.684l0,0l0,0c0,0,15.008,33.106,15.28,48.685c7.558,2.33,63.43,11.68,76.136,12.183    c12.705-0.503,68.58-9.854,76.135-12.183c0.273-15.579,15.28-48.685,15.28-48.685l0,0l0,0    C193.217,69.79,178.21,36.685,177.937,21.107z"/><path style="fill:;" d="M202.322,67.019l0-0.001c-4.206-9.257-15.17-35.968-15.385-48.239l-0.085-4.588l-3.973-1.228    c-7.627-2.351-67.123-12.412-80.873-12.953L101.804,0l-0.211,0.01C87.828,0.552,28.345,10.613,20.726,12.965l-3.979,1.227    l-0.081,4.588C16.456,30.997,5.491,57.741,1.284,67.015l-1.261,2.778l0.001,0.002L0,69.849l0.164,0.253l1.12,2.463    c4.207,9.275,15.172,36.021,15.383,48.237l0.081,4.589l3.978,1.228c7.621,2.351,67.104,12.411,80.859,12.953l0.219,0.012    l0.192-0.012c13.763-0.541,73.258-10.602,80.883-12.954l3.972-1.227l0.085-4.589c0.214-12.266,11.178-38.98,15.385-48.24    l1.254-2.771L202.322,67.019z M196.555,76.155c-4.281,10.137-13.221,32.679-13.435,44.571l-0.023,1.544l-1.267,0.391    c-7.527,2.319-66.349,12.257-79.963,12.797l-0.049,0.002l-0.075-0.001c-13.623-0.541-72.443-10.479-79.97-12.797l-1.268-0.392    l-0.026-1.545c-0.215-12.279-9.748-35.933-13.837-45.533c-1.184-2.779-1.931-4.431-1.938-4.446l-0.434-0.955l0.432-0.951    c0.07-0.153,0.839-1.865,1.939-4.449c4.089-9.6,13.622-33.255,13.837-45.533l0.026-1.545l1.268-0.391    c7.534-2.32,66.356-12.258,79.971-12.798l0.031-0.003l0.083,0.003c13.615,0.54,72.44,10.477,79.973,12.797l1.267,0.392l0.023,1.546    c0.213,11.888,9.154,34.431,13.435,44.569h-0.007l0.411,0.964c1.167,2.737,1.908,4.383,1.938,4.445l0.435,0.955l-0.435,0.953    c-0.066,0.142-0.822,1.831-1.938,4.448l-0.406,0.964H196.555z"/></g></g><g id="SvgjsG1015" featurekey="symbol1" fill="#1f02c2" transform="matrix(1.6706129984959996,0,0,1.6706129984959996,21.952644018048005,56.329387001504)"><g><g><path d="M33,1C21.4,1,12,10.4,12,22c0,7.2,7.8,19.1,14.8,28.2h0c0.2,0.2,2.7,3.6,3.1,3.8c1.5,1.9,2.5,3,2.5,3    c0.3,0.3,0.9,0.3,1.1,0c0,0,1-1.2,2.5-3c0.3-0.1,3-3.7,3.1-3.8h0c7-9.1,14.8-21,14.8-28.2C54,10.4,44.6,1,33,1z M33,38.9    c-9.3,0-16.9-7.6-16.9-16.9S23.7,5.1,33,5.1S49.9,12.7,49.9,22S42.3,38.9,33,38.9z"/></g><g><path d="M42.6,57.4c0,1.7-3.9,3.6-9.6,3.6s-9.6-1.9-9.6-3.6c0-1,1.6-2.3,4.7-3c0.4,0.4,0.4,0.6,0.8,0.9c2.1,2.6,2.7,3.6,4.1,3.6    c0.7,0,1.3-0.3,1.7-0.8h0c0.3-0.3,1.3-1.5,2.4-2.8c0.3-0.2,0.6-0.6,0.8-0.9C41,55,42.6,56.3,42.6,57.4z"/></g><g><path d="M50.2,57.4c0,4.3-7.6,7.6-17.2,7.6s-17.2-3.4-17.2-7.6c0-3,3.7-5.6,9.4-6.8c0.3,0.4,1.8,2.4,1.9,2.5    c-3.2,0.9-5.2,2.5-5.2,4.3c0,6.7,22.2,6.7,22.2,0c0-1.9-2-3.5-5.2-4.3c0.1-0.1,1.6-2,1.9-2.5C46.5,51.8,50.2,54.4,50.2,57.4z"/></g><g><circle cx="33" cy="13.7" r="1.7"/></g><g><path d="M35.1,19.5l-1.6,1.6c-0.3,0.3-0.8,0.3-1.1,0l-1.6-1.6c-0.7,0.5-1.1,1.3-1.1,2.2v4.1h0.9c0.4,0,0.8,0.3,0.8,0.8v4.3h3v-4.3    c0-0.4,0.3-0.8,0.8-0.8h0.9v-4.1C36.2,20.8,35.8,20,35.1,19.5z"/></g><g><path d="M33,6.6c-8.5,0-15.4,6.9-15.4,15.4S24.5,37.4,33,37.4S48.4,30.5,48.4,22S41.5,6.6,33,6.6z M33,10.6c1.8,0,3.2,1.4,3.2,3.2    c0,1.8-1.4,3.2-3.2,3.2c-1.7,0-3.2-1.4-3.2-3.2C29.8,12,31.2,10.6,33,10.6z M37.7,26.6c0,0.4-0.3,0.8-0.8,0.8h-1v4.4    c0,0.4-0.3,0.8-0.8,0.8h-4.5c-0.4,0-0.8-0.3-0.8-0.8v-4.4h-0.9c-0.4,0-0.8-0.3-0.8-0.8v-4.9c0-1.6,0.9-3.1,2.3-3.8    c0.3-0.1,0.6-0.1,0.9,0.1l1.5,1.5l1.4-1.4c0.2-0.2,0.6-0.3,0.9-0.2c1.4,0.7,2.3,2.2,2.3,3.8V26.6z"/></g></g></g><g id="SvgjsG1016" featurekey="text1" fill="#1f02c2" transform="matrix(4.961494973334555,0,0,4.961494973334555,130.511551448854,33.36106067400348)"><path d="M0.3 20 l0 -2.32 l1.02 0 l3.92 -10.9 l3.08 0 l4.34 10.9 l1.04 0 l0 2.32 l-5.52 0 l0 -2.32 l1.24 0 l-0.5 -1.32 l-4.24 0 l-0.44 1.32 l1.26 0 l0 2.32 l-5.2 0 z M5.42 14.04 l2.66 0 l-1.42 -4.02 z M14.58 20 l0 -2.32 l1.44 0 l0 -8.58 l-1.44 0 l0 -2.32 l6.34 0 l2.64 7.68 l2.62 -7.68 l6.22 0 l0 2.32 l-1.44 0 l0 8.58 l1.44 0 l0 2.32 l-6.04 0 l0 -2.32 l1.34 0 l0 -7.28 l-3.32 9.6 l-1.8 0 l-3.3 -9.54 l0 7.22 l1.34 0 l0 2.32 l-6.04 0 z"/></g><g id="SvgjsG1017" featurekey="text3" fill="#1f02c2" transform="matrix(0.7754229359824152,0,0,0.7754229359824152,153.22764331222103,141.46510415746403)"><path d="M1.4648 9.179375 l4.7949 0 l0 1.6895 l-1.2402 0 l0 11.436 q0 0.21484375 -0.1025390625 0.5029296875 t-0.26367 0.61035 t-0.37598 0.65918 t-0.42969 0.65918 q-0.517578125 0.751953125 -1.171875 1.572265625 l-1.6797 -0.14648 q0.576171875 -0.87890625 1.03515625 -1.6796875 q0.1953125 -0.341796875 0.380859375 -0.6982421875 t0.33203 -0.68848 t0.23926 -0.62012 t0.092773 -0.49316 l0 -11.113 l-1.6113 0 l0 -1.6895 z M7.76365625 9.179375 l4.7949 0 l0 1.6895 l-1.5137 0 l0 6.8945 q0 1.240234375 0.2783203125 2.114257813 t0.77148 1.4258 t1.1719 0.80566 t1.4893 0.25391 q0.83984375 0 1.54296875 -0.224609375 t1.2061 -0.75684 t0.78125 -1.416 t0.27832 -2.2021 l0 -6.8945 l-1.6016 0 l0 -1.6895 l4.7949 0 l0 1.6895 l-1.3184 0 l0 6.6797 q0 1.6015625 -0.4443359375 2.841796875 t-1.2158 2.0801 t-1.8164 1.2744 t-2.2461 0.43457 q-1.171875 0 -2.192382813 -0.4296875 t-1.7773 -1.2598 t-1.1914 -2.0264 t-0.43457 -2.7393 l0 -6.8555 l-1.3574 0 l0 -1.6895 z M30.468775 11.914375 q-0.3125 -0.4296875 -0.6884765625 -0.6591796875 t-0.8252 -0.35156 t-0.89844 -0.12207 q-0.7421875 0 -1.298828125 0.1708984375 t-0.92285 0.46387 t-0.55176 0.68359 t-0.18555 0.82031 q0 0.64453125 0.2294921875 1.040039063 t0.58105 0.63477 t0.77637 0.37598 t0.81543 0.27344 l1.9727 0.64453 q0.888671875 0.283203125 1.567382813 0.64453125 t1.1377 0.85449 t0.69824 1.1377 t0.23926 1.4941 q0 0.91796875 -0.3759765625 1.69921875 t-1.0498 1.3574 t-1.6064 0.90332 t-2.0459 0.32715 q-1.142578125 0 -1.953125 -0.2587890625 t-1.3623 -0.69336 t-0.88379 -0.99121 t-0.51758 -1.1426 l-0.74219 0 l0 -1.6797 l2.4609 0 q0 1.083984375 0.2294921875 1.533203125 t0.63965 0.74707 t0.97656 0.44922 t1.25 0.15137 q0.6640625 0 1.196289063 -0.15625 t0.9082 -0.4541 t0.57617 -0.72266 t0.2002 -0.96191 q0 -0.595703125 -0.2490234375 -1.010742188 t-0.63965 -0.70801 t-0.85449 -0.47852 t-0.89355 -0.32227 l-2.1387 -0.60547 q-0.703125 -0.21484375 -1.284179688 -0.546875 t-0.99609 -0.81055 t-0.63965 -1.1182 t-0.22461 -1.4795 q0 -0.849609375 0.33203125 -1.591796875 t0.97656 -1.2988 t1.5771 -0.87402 t2.1338 -0.31738 q0.791015625 0 1.459960938 0.185546875 t1.2109 0.52246 t0.95703 0.81055 t0.69824 1.04 l0.73242 0 l0 1.6797 l-2.3926 0 q0 -0.859375 -0.3125 -1.2890625 z M38.03708125 22.304675 l1.3574 0 l0 -11.523 l-3.3789 0 l0 2.3047 l-2.002 0 l0 -3.9063 l13.203 0 l0 3.9063 l-2.002 0 l0 -2.3047 l-3.9063 0 l0 11.523 l1.5234 0 l0 1.6797 l-4.7949 0 l0 -1.6797 z M47.6171875 23.984375 z M53.3886875 9.179375 l4.8047 0 l0 1.6895 l-1.4844 0 l0 11.436 l5.1074 0 q0.15625 0 0.3125 -0.0732421875 t0.2832 -0.19043 t0.20508 -0.26855 t0.078125 -0.30762 l0 -1.8652 l1.8555 0 l0 4.3848 l-11.162 0 l0 -1.6797 l1.4063 0 l0 -11.436 l-1.4063 0 l0 -1.6895 z M72.4511375 24.277345 q-1.533203125 0 -2.802734375 -0.5712890625 t-2.2656 -1.626 t-1.5137 -2.5 t-0.51758 -2.998 q0 -1.6015625 0.5224609375 -3.0078125 t1.4648 -2.4463 t2.2461 -1.6406 t2.8662 -0.60059 q1.572265625 0 2.880859375 0.6005859375 t2.2461 1.6406 t1.4551 2.4463 t0.51758 3.0078 t-0.52246 3.0029 t-1.4648 2.4463 t-2.2461 1.6455 t-2.8662 0.60059 z M72.4511375 22.460975 q1.162109375 0 2.104492188 -0.478515625 t1.6064 -1.2842 t1.0254 -1.8701 t0.36133 -2.2461 q0 -1.2109375 -0.3955078125 -2.338867188 t-1.1035 -1.9092 t-1.6455 -1.2061 t-1.9531 -0.4248 q-1.162109375 0 -2.109375 0.478515625 t-1.6113 1.2842 t-1.0254 1.875 t-0.36133 2.2412 q0 1.3671875 0.400390625 2.436523438 t1.0596 1.7773 t1.5723 1.1865 t2.0752 0.47852 z M93.066140625 24.042969 l0 -2.9688 q-0.37109375 0.771484375 -0.927734375 1.342773438 t-1.2402 0.94238 t-1.46 0.55664 t-1.5771 0.18555 q-1.4453125 0 -2.666015625 -0.4833984375 t-2.2119 -1.5381 t-1.5137 -2.5 t-0.52246 -3.0176 q0 -1.58203125 0.5224609375 -2.98828125 t1.4648 -2.4512 t2.2461 -1.6406 t2.8271 -0.5957 q1.40625 0 2.416992188 0.400390625 t1.7285 0.97168 t1.1475 1.0889 l0.94727 0 l0 1.7383 l-2.0996 0 q-0.654296875 -1.11328125 -1.733398438 -1.7578125 t-2.417 -0.625 q-1.123046875 0 -2.060546875 0.478515625 t-1.6064 1.2891 t-1.04 1.8652 t-0.37109 2.2266 q0 1.298828125 0.41015625 2.412109375 t1.0449 1.8066 t1.5674 1.1475 t2.0654 0.4541 q1.875 0 3.076171875 -0.9130859375 t1.6797 -2.8467 l-4.1406 0 l0 -1.6797 l6.2598 0 l0 7.0996 l-1.8164 0 z M98.0761875 9.179375 l4.7266 0 l0 1.6895 l-1.4063 0 l0 11.436 l1.4063 0 l0 1.6797 l-4.7266 0 l0 -1.6797 l1.4063 0 l0 -11.436 l-1.4063 0 l0 -1.6895 z M114.75621875 9.179375 l4.8047 0 l0 1.6895 l-1.2598 0 l0 13.115 l-2.5 0 l-6.8848 -12.275 l0 10.596 l1.5234 0 l0 1.6797 l-4.8047 0 l0 -1.6797 l1.3672 0 l0 -11.436 l-1.4063 0 l0 -1.709 l3.9844 0 l6.7578 12.158 l0.078125 -0.46875 l0 -9.9805 l-1.6602 0 l0 -1.6895 z M122.16799375 13.642375 l-1.748 0 l0 -5.0586 l2.2168 -0.15625 z M123.37890625 23.984375 z M129.15040625 9.179375 l4.7266 0 l0 1.6895 l-1.4063 0 l0 11.436 l1.4063 0 l0 1.6797 l-4.7266 0 l0 -1.6797 l1.4063 0 l0 -11.436 l-1.4063 0 l0 -1.6895 z M139.6972375 22.304675 l1.3574 0 l0 -11.523 l-3.3789 0 l0 2.3047 l-2.002 0 l0 -3.9063 l13.203 0 l0 3.9063 l-2.002 0 l0 -2.3047 l-3.9063 0 l0 11.523 l1.5234 0 l0 1.6797 l-4.7949 0 l0 -1.6797 z"/></g></svg>